<?xml version="1.0" standalone="no"?><!DOCTYPE svg PUBLIC "-//W3C//DTD SVG 1.1//EN" "http://www.w3.org/Graphics/SVG/1.1/DTD/svg11.dtd"><svg xmlns:xlink="http://www.w3.org/1999/xlink" version="1.1" style="font-family:'lucida grande', 'lucida sans unicode', arial, helvetica, sans-serif;font-size:12px;" xmlns="http://www.w3.org/2000/svg" width="600" height="400"><desc>Created with Highcharts 4.2.7</desc><defs><clipPath id="highcharts-128"><rect x="1" y="1" width="578" height="278"></rect></clipPath></defs><rect x="1" y="1" width="598" height="398" fill="none" class=" highcharts-background"></rect><rect x="10" y="10" width="580" height="280" fill="#ffffff"></rect><rect x="10" y="10" width="580" height="280" stroke="#ffffff" stroke-width="2" fill="none"></rect><g class="highcharts-series-group"><g class="highcharts-series highcharts-series-0" transform="translate(10,10) scale(1 1)"><path fill="#50B432" d="M 306.9795308430286 41.500002084509404 A 100.5 100.5 0 0 1 395.4845517931105 94.347779758207 L 307 142 A 0 0 0 0 0 307 142 Z" stroke="#FFFFFF" stroke-width="1" stroke-linejoin="round" transform="translate(0,0)"></path><path fill="#ED561B" d="M 395.53215976313805 94.43628812136082 A 100.5 100.5 0 0 1 397.1867209153519 186.34642455188956 L 307 142 A 0 0 0 0 0 307 142 Z" stroke="#FFFFFF" stroke-width="1" stroke-linejoin="round" transform="translate(0,0)"></path><path fill="#DDDF00" d="M 397.14232940483436 186.43658908456337 A 100.5 100.5 0 0 1 324.67561301366743 240.9334256183979 L 307 142 A 0 0 0 0 0 307 142 Z" stroke="#FFFFFF" stroke-width="1" stroke-linejoin="round" transform="translate(0,0)"></path><path fill="#24CBE5" d="M 324.5766707667322 240.95105176175696 A 100.5 100.5 0 0 1 252.07469043841036 226.1632958573008 L 307 142 A 0 0 0 0 0 307 142 Z" stroke="#FFFFFF" stroke-width="1" stroke-linejoin="round" transform="translate(0,0)"></path><path fill="#64E572" d="M 251.99055461923277 226.10832847524904 A 100.5 100.5 0 0 1 215.96967034661523 184.58789831860804 L 307 142 A 0 0 0 0 0 307 142 Z" stroke="#FFFFFF" stroke-width="1" stroke-linejoin="round" transform="translate(0,0)"></path><path fill="#FF9655" d="M 215.92712797055566 184.496846710179 A 100.5 100.5 0 0 1 206.50289681760742 142.76305435424928 L 307 142 A 0 0 0 0 0 307 142 Z" stroke="#FFFFFF" stroke-width="1" stroke-linejoin="round" transform="translate(0,0)"></path><path fill="#FFF263" d="M 206.50218401192774 142.66255688628925 A 100.5 100.5 0 0 1 212.57263536824178 107.59472702185059 L 307 142 A 0 0 0 0 0 307 142 Z" stroke="#FFFFFF" stroke-width="1" stroke-linejoin="round" transform="translate(0,0)"></path><path fill="#6AF9C4" d="M 212.6070878491641 107.50031687559178 A 100.5 100.5 0 0 1 229.7724740917413 77.68702120031115 L 307 142 A 0 0 0 0 0 307 142 Z" stroke="#FFFFFF" stroke-width="1" stroke-linejoin="round" transform="translate(0,0)"></path><path fill="#2F7ED8" d="M 229.83682567358187 77.60982584376089 A 100.5 100.5 0 0 1 251.55516858322824 58.17804184364482 L 307 142 A 0 0 0 0 0 307 142 Z" stroke="#FFFFFF" stroke-width="1" stroke-linejoin="round" transform="translate(0,0)"></path><path fill="#0D233A" d="M 251.6390182498277 58.12263893244443 A 100.5 100.5 0 0 1 264.0668285219659 51.13200350597734 L 307 142 A 0 0 0 0 0 307 142 Z" stroke="#FFFFFF" stroke-width="1" stroke-linejoin="round" transform="translate(0,0)"></path><path fill="#8BBC21" d="M 264.1577179698992 51.089115775649276 A 100.5 100.5 0 0 1 271.9363135888911 47.815139776801615 L 307 142 A 0 0 0 0 0 307 142 Z" stroke="#FFFFFF" stroke-width="1" stroke-linejoin="round" transform="translate(0,0)"></path><path fill="#910000" d="M 272.03051596525864 47.780123188660625 A 100.5 100.5 0 0 1 279.5752118374129 45.31426685266733 L 307 142 A 0 0 0 0 0 307 142 Z" stroke="#FFFFFF" stroke-width="1" stroke-linejoin="round" transform="translate(0,0)"></path><path fill="#1AADCE" d="M 279.67191126683895 45.286890411938074 A 100.5 100.5 0 0 1 285.5203926011472 43.822220100517924 L 307 142 A 0 0 0 0 0 307 142 Z" stroke="#FFFFFF" stroke-width="1" stroke-linejoin="round" transform="translate(0,0)"></path><path fill="#B3DE59" d="M 285.61858110448657 43.80078958558485 A 100.5 100.5 0 0 1 291.0491463515073 42.773893214112405 L 307 142 A 0 0 0 0 0 307 142 Z" stroke="#FFFFFF" stroke-width="1" stroke-linejoin="round" transform="translate(0,0)"></path><path fill="#B34E65" d="M 291.1483804171817 42.75799197617164 A 100.5 100.5 0 0 1 296.5279507686845 42.04708015822197 L 307 142 A 0 0 0 0 0 307 142 Z" stroke="#FFFFFF" stroke-width="1" stroke-linejoin="round" transform="translate(0,0)"></path><path fill="#014DAD" d="M 296.62790890789165 42.03665808719175 A 100.5 100.5 0 0 1 301.8376803040381 41.63267237115116 L 307 142 A 0 0 0 0 0 307 142 Z" stroke="#FFFFFF" stroke-width="1" stroke-linejoin="round" transform="translate(0,0)"></path><path fill="#FDBE57" d="M 301.9380501960987 41.62756023597521 A 100.5 100.5 0 0 1 306.8604075162238 41.500096945626495 L 307 142 A 0 0 0 0 0 307 142 Z" stroke="#FFFFFF" stroke-width="1" stroke-linejoin="round" transform="translate(0,0)"></path></g><g class="highcharts-markers highcharts-series-0" transform="translate(10,10) scale(1 1)"></g></g><g class="highcharts-data-labels highcharts-series-0" transform="translate(10,10) scale(1 1)" opacity="1"><path fill="none" d="M 378.94987003209536 29.482300940049942 C 373.94987003209536 29.482300940049942 369.8456634400895 36.349286323035386 364.20237937608147 45.79139122464037 L 358.55909531207345 55.233496126245356" stroke="#50B432" stroke-width="1"></path><path fill="none" d="M 442.47933476539527 139.17767375678673 C 437.47933476539527 139.17767375678673 429.48060159970055 139.32003858395692 418.48234349687027 139.51579022131588 L 407.48408539404 139.71154185867485" stroke="#ED561B" stroke-width="1"></path><path fill="none" d="M 390.3952863789875 245.82846722518514 C 385.3952863789875 245.82846722518514 380.5894450683982 239.43285237613162 373.981413266338 230.63888195868307 L 367.37338146427777 221.84491154123452" stroke="#DDDF00" stroke-width="1"></path><path fill="none" d="M 275.827194106349 269.34848153831655 C 280.827194106349 269.34848153831655 282.43165730289473 261.51102673136995 284.637794198145 250.73452637181836 L 286.84393109339527 239.95802601226677" stroke="#24CBE5" stroke-width="1"></path><path fill="none" d="M 218.75337844693036 242 C 223.75337844693036 242 214.41238663567594 221.71087115533933 222.72637640716627 214.5082623169007 L 231.0403661786566 207.30565347846206" stroke="#64E572" stroke-width="1"></path><path fill="none" d="M 198.51087013603797 221 C 203.51087013603797 221 187.4997215510017 168.4431522025891 198.23035879948318 166.0237671068464 L 208.96099604796467 163.60438201110372" stroke="#FF9655" stroke-width="1"></path><path fill="none" d="M 185.34666742865852 200 C 190.34666742865852 200 186.30199386795692 120.56578600115849 197.14018217369141 122.44559297248303 L 207.9783704794259 124.32539994380757" stroke="#FFF263" stroke-width="1"></path><path fill="none" d="M 177.00400006400204 179 C 182.00400006400204 179 200.85569001044874 80.34744112596715 210.38701580542886 85.83869131057418 L 219.91834160040898 91.3299414951812" stroke="#6AF9C4" stroke-width="1"></path><path fill="none" d="M 172.54730593765152 158 C 177.54730593765152 158 225.32569679544935 50.20072182075518 232.65971585871512 58.39902435113635 L 239.9937349219809 66.59732688151752" stroke="#2F7ED8" stroke-width="1"></path><path fill="none" d="M 171.57760928429505 137 C 176.57760928429505 137 246.9787034566064 34.7119203223037 252.3683709013193 44.301054007647856 L 257.7580383460322 53.890187692992015" stroke="#0D233A" stroke-width="1"></path><path fill="none" d="M 174.01562595379073 116 C 179.01562595379073 116 259.52499532787385 28.573590638054924 263.7880569719015 38.71392127463775 L 268.0511186159291 48.85425191122057" stroke="#8BBC21" stroke-width="1"></path><path fill="none" d="M 180.06559140259054 95 C 185.06559140259054 95 268.97072668943207 25.052482330149587 272.38560021119736 35.508994120911666 L 275.80047373296264 45.965505911673745" stroke="#910000" stroke-width="1"></path><path fill="none" d="M 190.3129371860823 74 C 195.3129371860823 74 277.31311686432946 22.65161351667814 279.9788777989611 33.32371352742541 L 282.6446387335927 43.99581353817268" stroke="#1AADCE" stroke-width="1"></path><path fill="none" d="M 206.0937958211253 53 C 211.0937958211253 53 284.2974475142222 21.122077976771408 286.3360440639655 31.9315240360001 L 288.37464061370883 42.74097009522879" stroke="#B3DE59" stroke-width="1"></path><path fill="none" d="M 231.0070426028046 32 C 236.0070426028046 32 290.9554453337931 20.05527073782455 292.3961808548402 30.960511732795407 L 293.83691637588737 41.865752727766264" stroke="#B34E65" stroke-width="1"></path><path fill="none" d="M 291.93844181490226 11 C 296.93844181490226 11 297.55524231667044 19.36463840351891 298.4033430066021 30.331895363202925 L 299.2514436965337 41.29915232288694" stroke="#014DAD" stroke-width="1"></path><g style="cursor:pointer;" transform="translate(384,19)"><text x="5" style="font-size:10px;font-weight:bold;font-family:'arial', sans-serif;color:#000;text-shadow:none;fill:#000;text-rendering:geometricprecision;" y="15"><tspan>Latour B: 17.1%</tspan></text></g><g style="cursor:pointer;" transform="translate(447,129)"><text x="5" style="font-size:10px;font-weight:bold;font-family:'arial', sans-serif;color:#000;text-shadow:none;fill:#000;text-rendering:geometricprecision;" y="15"><tspan>Swedbank A: 15.1%</tspan></text></g><g style="cursor:pointer;" transform="translate(395,236)"><text x="5" style="font-size:10px;font-weight:bold;font-family:'arial', sans-serif;color:#000;text-shadow:none;fill:#000;text-rendering:geometricprecision;" y="15"><tspan>XACT Högutdelande: 14.9%</tspan></text></g><g style="cursor:pointer;" transform="translate(177,259)"><text x="5" style="font-size:10px;font-weight:bold;font-family:'arial', sans-serif;color:#000;text-shadow:none;fill:#000;text-rendering:geometricprecision;" y="15"><tspan>Investor B: 12.0%</tspan></text></g><g style="cursor:pointer;" transform="translate(135,232)"><text x="5" style="font-size:10px;font-weight:bold;font-family:'arial', sans-serif;color:#000;text-shadow:none;fill:#000;text-rendering:geometricprecision;" y="15"><tspan>Sagax D: 8.8%</tspan></text></g><g style="cursor:pointer;" transform="translate(71,211)"><text x="5" style="font-size:10px;font-weight:bold;font-family:'arial', sans-serif;color:#000;text-shadow:none;fill:#000;text-rendering:geometricprecision;" y="15"><tspan>Handelsbanken A: 6.8%</tspan></text></g><g style="cursor:pointer;" transform="translate(94,190)"><text x="5" style="font-size:10px;font-weight:bold;font-family:'arial', sans-serif;color:#000;text-shadow:none;fill:#000;text-rendering:geometricprecision;" y="15"><tspan>Castellum: 5.7%</tspan></text></g><g style="cursor:pointer;" transform="translate(71,169)"><text x="5" style="font-size:10px;font-weight:bold;font-family:'arial', sans-serif;color:#000;text-shadow:none;fill:#000;text-rendering:geometricprecision;" y="15"><tspan>Husqvarna B: 5.5%</tspan></text></g><g style="cursor:pointer;" transform="translate(93,148)"><text x="5" style="font-size:10px;font-weight:bold;font-family:'arial', sans-serif;color:#000;text-shadow:none;fill:#000;text-rendering:geometricprecision;" y="15"><tspan>Axfood: 4.6%</tspan></text></g><g style="cursor:pointer;" transform="translate(13,127)"><text x="5" style="font-size:10px;font-weight:bold;font-family:'arial', sans-serif;color:#000;text-shadow:none;fill:#000;text-rendering:geometricprecision;" y="15"><tspan>Akelius Residential Pref: 2.3%</tspan></text></g><g style="cursor:pointer;" transform="translate(61,106)"><text x="5" style="font-size:10px;font-weight:bold;font-family:'arial', sans-serif;color:#000;text-shadow:none;fill:#000;text-rendering:geometricprecision;" y="15"><tspan>Atlas Copco B: 1.3%</tspan></text></g><g style="cursor:pointer;" transform="translate(57,85)"><text x="5" style="font-size:10px;font-weight:bold;font-family:'arial', sans-serif;color:#000;text-shadow:none;fill:#000;text-rendering:geometricprecision;" y="15"><tspan>Industrivärden A: 1.3%</tspan></text></g><g style="cursor:pointer;" transform="translate(96,64)"><text x="5" style="font-size:10px;font-weight:bold;font-family:'arial', sans-serif;color:#000;text-shadow:none;fill:#000;text-rendering:geometricprecision;" y="15"><tspan>Skanska B: 1.0%</tspan></text></g><g style="cursor:pointer;" transform="translate(103,43)"><text x="5" style="font-size:10px;font-weight:bold;font-family:'arial', sans-serif;color:#000;text-shadow:none;fill:#000;text-rendering:geometricprecision;" y="15"><tspan>Autoliv SDB: 0.9%</tspan></text></g><g style="cursor:pointer;" transform="translate(130,22)"><text x="5" style="font-size:10px;font-weight:bold;font-family:'arial', sans-serif;color:#000;text-shadow:none;fill:#000;text-rendering:geometricprecision;" y="15"><tspan>Kungsleden: 0.9%</tspan></text></g><g style="cursor:pointer;" transform="translate(172,1)"><text x="5" style="font-size:10px;font-weight:bold;font-family:'arial', sans-serif;color:#000;text-shadow:none;fill:#000;text-rendering:geometricprecision;" y="15"><tspan>NP3 Fastigheter: 0.8%</tspan></text></g><g style="cursor:pointer;" transform="translate(0,-9999)"><text x="5" style="font-size:10px;font-weight:bold;font-family:'arial', sans-serif;color:#000;text-shadow:none;fill:#000;text-rendering:geometricprecision;" y="15"><tspan>Pfizer: 0.8%</tspan></text></g></g><g class="highcharts-legend" transform="translate(28,302)"><g><g><g class="highcharts-legend-item" transform="translate(8,3)"><text x="21" style="color:#333;font-size:9pt;font-weight:normal;cursor:pointer;font-family:'lucida grande','lucida sans unicode',arial,helvetica,sans-serif;text-transform:none;fill:#333;" text-anchor="start" y="15"><tspan>Latour B</tspan></text><rect x="0" y="4" width="16" height="12" fill="#50B432"></rect></g><g class="highcharts-legend-item" transform="translate(97.03125,3)"><text x="21" y="15" style="color:#333;font-size:9pt;font-weight:normal;cursor:pointer;font-family:'lucida grande','lucida sans unicode',arial,helvetica,sans-serif;text-transform:none;fill:#333;" text-anchor="start"><tspan>Swedbank A</tspan></text><rect x="0" y="4" width="16" height="12" fill="#ED561B"></rect></g><g class="highcharts-legend-item" transform="translate(209.40625,3)"><text x="21" y="15" style="color:#333;font-size:9pt;font-weight:normal;cursor:pointer;font-family:'lucida grande','lucida sans unicode',arial,helvetica,sans-serif;text-transform:none;fill:#333;" text-anchor="start"><tspan>XACT Högutdelande</tspan></text><rect x="0" y="4" width="16" height="12" fill="#DDDF00"></rect></g><g class="highcharts-legend-item" transform="translate(368.8125,3)"><text x="21" y="15" style="color:#333;font-size:9pt;font-weight:normal;cursor:pointer;font-family:'lucida grande','lucida sans unicode',arial,helvetica,sans-serif;text-transform:none;fill:#333;" text-anchor="start"><tspan>Investor B</tspan></text><rect x="0" y="4" width="16" height="12" fill="#24CBE5"></rect></g><g class="highcharts-legend-item" transform="translate(467.296875,3)"><text x="21" y="15" style="color:#333;font-size:9pt;font-weight:normal;cursor:pointer;font-family:'lucida grande','lucida sans unicode',arial,helvetica,sans-serif;text-transform:none;fill:#333;" text-anchor="start"><tspan>Sagax D</tspan></text><rect x="0" y="4" width="16" height="12" fill="#64E572"></rect></g><g class="highcharts-legend-item" transform="translate(8,21)"><text x="21" y="15" style="color:#333;font-size:9pt;font-weight:normal;cursor:pointer;font-family:'lucida grande','lucida sans unicode',arial,helvetica,sans-serif;text-transform:none;fill:#333;" text-anchor="start"><tspan>Handelsbanken A</tspan></text><rect x="0" y="4" width="16" height="12" fill="#FF9655"></rect></g><g class="highcharts-legend-item" transform="translate(151.28125,21)"><text x="21" y="15" style="color:#333;font-size:9pt;font-weight:normal;cursor:pointer;font-family:'lucida grande','lucida sans unicode',arial,helvetica,sans-serif;text-transform:none;fill:#333;" text-anchor="start">Castellum</text><rect x="0" y="4" width="16" height="12" fill="#FFF263"></rect></g><g class="highcharts-legend-item" transform="translate(250.078125,21)"><text x="21" y="15" style="color:#333;font-size:9pt;font-weight:normal;cursor:pointer;font-family:'lucida grande','lucida sans unicode',arial,helvetica,sans-serif;text-transform:none;fill:#333;" text-anchor="start"><tspan>Husqvarna B</tspan></text><rect x="0" y="4" width="16" height="12" fill="#6AF9C4"></rect></g><g class="highcharts-legend-item" transform="translate(363.625,21)"><text x="21" y="15" style="color:#333;font-size:9pt;font-weight:normal;cursor:pointer;font-family:'lucida grande','lucida sans unicode',arial,helvetica,sans-serif;text-transform:none;fill:#333;" text-anchor="start">Axfood</text><rect x="0" y="4" width="16" height="12" fill="#2F7ED8"></rect></g><g class="highcharts-legend-item" transform="translate(8,39)"><text x="21" y="15" style="color:#333;font-size:9pt;font-weight:normal;cursor:pointer;font-family:'lucida grande','lucida sans unicode',arial,helvetica,sans-serif;text-transform:none;fill:#333;" text-anchor="start"><tspan>Akelius Residential Pref</tspan></text><rect x="0" y="4" width="16" height="12" fill="#0D233A"></rect></g><g class="highcharts-legend-item" transform="translate(187.890625,39)"><text x="21" y="15" style="color:#333;font-size:9pt;font-weight:normal;cursor:pointer;font-family:'lucida grande','lucida sans unicode',arial,helvetica,sans-serif;text-transform:none;fill:#333;" text-anchor="start"><tspan>Atlas Copco B</tspan></text><rect x="0" y="4" width="16" height="12" fill="#8BBC21"></rect></g><g class="highcharts-legend-item" transform="translate(310.203125,39)"><text x="21" y="15" style="color:#333;font-size:9pt;font-weight:normal;cursor:pointer;font-family:'lucida grande','lucida sans unicode',arial,helvetica,sans-serif;text-transform:none;fill:#333;" text-anchor="start"><tspan>Industrivärden A</tspan></text><rect x="0" y="4" width="16" height="12" fill="#910000"></rect></g><g class="highcharts-legend-item" transform="translate(448.3125,39)"><text x="21" y="15" style="color:#333;font-size:9pt;font-weight:normal;cursor:pointer;font-family:'lucida grande','lucida sans unicode',arial,helvetica,sans-serif;text-transform:none;fill:#333;" text-anchor="start"><tspan>Skanska B</tspan></text><rect x="0" y="4" width="16" height="12" fill="#1AADCE"></rect></g><g class="highcharts-legend-item" transform="translate(8,57)"><text x="21" y="15" style="color:#333;font-size:9pt;font-weight:normal;cursor:pointer;font-family:'lucida grande','lucida sans unicode',arial,helvetica,sans-serif;text-transform:none;fill:#333;" text-anchor="start"><tspan>Autoliv SDB</tspan></text><rect x="0" y="4" width="16" height="12" fill="#B3DE59"></rect></g><g class="highcharts-legend-item" transform="translate(116.96875,57)"><text x="21" y="15" style="color:#333;font-size:9pt;font-weight:normal;cursor:pointer;font-family:'lucida grande','lucida sans unicode',arial,helvetica,sans-serif;text-transform:none;fill:#333;" text-anchor="start">Kungsleden</text><rect x="0" y="4" width="16" height="12" fill="#B34E65"></rect></g><g class="highcharts-legend-item" transform="translate(226.125,57)"><text x="21" y="15" style="color:#333;font-size:9pt;font-weight:normal;cursor:pointer;font-family:'lucida grande','lucida sans unicode',arial,helvetica,sans-serif;text-transform:none;fill:#333;" text-anchor="start"><tspan>NP3 Fastigheter</tspan></text><rect x="0" y="4" width="16" height="12" fill="#014DAD"></rect></g><g class="highcharts-legend-item" transform="translate(358.921875,57)"><text x="21" y="15" style="color:#333;font-size:9pt;font-weight:normal;cursor:pointer;font-family:'lucida grande','lucida sans unicode',arial,helvetica,sans-serif;text-transform:none;fill:#333;" text-anchor="start">Pfizer</text><rect x="0" y="4" width="16" height="12" fill="#FDBE57"></rect></g></g></g></g><g class="highcharts-tooltip" display="none" style="cursor:default;padding:0;pointer-events:none;white-space:nowrap;" transform="translate(0,0)"><path fill="none" d="M 3.5 0.5 L 13.5 0.5 C 16.5 0.5 16.5 0.5 16.5 3.5 L 16.5 13.5 C 16.5 16.5 16.5 16.5 13.5 16.5 L 3.5 16.5 C 0.5 16.5 0.5 16.5 0.5 13.5 L 0.5 3.5 C 0.5 0.5 0.5 0.5 3.5 0.5"  stroke="black" stroke-opacity="0.049999999999999996" stroke-width="5" transform="translate(1, 1)"></path><path fill="none" d="M 3.5 0.5 L 13.5 0.5 C 16.5 0.5 16.5 0.5 16.5 3.5 L 16.5 13.5 C 16.5 16.5 16.5 16.5 13.5 16.5 L 3.5 16.5 C 0.5 16.5 0.5 16.5 0.5 13.5 L 0.5 3.5 C 0.5 0.5 0.5 0.5 3.5 0.5"  stroke="black" stroke-opacity="0.09999999999999999" stroke-width="3" transform="translate(1, 1)"></path><path fill="none" d="M 3.5 0.5 L 13.5 0.5 C 16.5 0.5 16.5 0.5 16.5 3.5 L 16.5 13.5 C 16.5 16.5 16.5 16.5 13.5 16.5 L 3.5 16.5 C 0.5 16.5 0.5 16.5 0.5 13.5 L 0.5 3.5 C 0.5 0.5 0.5 0.5 3.5 0.5"  stroke="black" stroke-opacity="0.15" stroke-width="1" transform="translate(1, 1)"></path><path fill="rgb(0, 0, 0)" fill-opacity=" 0.75" d="M 3.5 0.5 L 13.5 0.5 C 16.5 0.5 16.5 0.5 16.5 3.5 L 16.5 13.5 C 16.5 16.5 16.5 16.5 13.5 16.5 L 3.5 16.5 C 0.5 16.5 0.5 16.5 0.5 13.5 L 0.5 3.5 C 0.5 0.5 0.5 0.5 3.5 0.5"></path><text x="8" style="font-size:12px;color:#000000;fill:#000000;" y="20"></text></g><text x="590" text-anchor="end" style="cursor:pointer;color:#666;font-size:9px;fill:#666;" y="395">meta-chart.com</text></svg>